HIERARCHY
ROOT Hips
{
    OFFSET 0.0 0.0 0.0
    CHANNELS 6 Xposition Yposition Zposition Zrotation Xrotation Yrotation
    JOINT LeftUpLeg
    {
        OFFSET 13.616141844219582 0.0 0.0
        CHANNELS 3 Zrotation Xrotation Yrotation
        JOINT LeftLeg
        {
            OFFSET 0.0 0.0 -57.55549897180633
            CHANNELS 3 Zrotation Xrotation Yrotation
            JOINT LeftFoot
            {
                OFFSET 0.0 0.0 -47.24407754796516
                CHANNELS 3 Zrotation Xrotation Yrotation
                JOINT LeftToeBase
                {
                    OFFSET 0.0 -11.650291876086836 0.0
                    CHANNELS 3 Zrotation Xrotation Yrotation
                    End Site
                    {
                        OFFSET 0 0 0
                    }
                }
            }
        }
    }
    JOINT RightUpLeg
    {
        OFFSET -13.616141844219582 0.0 0.0
        CHANNELS 3 Zrotation Xrotation Yrotation
        JOINT RightLeg
        {
            OFFSET 0.0 0.0 -57.55549897180633
            CHANNELS 3 Zrotation Xrotation Yrotation
            JOINT RightFoot
            {
                OFFSET 0.0 0.0 -47.24407754796516
                CHANNELS 3 Zrotation Xrotation Yrotation
                JOINT RightToeBase
                {
                    OFFSET 0.0 -11.650291876086836 0.0
                    CHANNELS 3 Zrotation Xrotation Yrotation
                    End Site
                    {
                        OFFSET 0 0 0
                    }
                }
            }
        }
    }
    JOINT Spine
    {
        OFFSET 0.0 0.0 11.967488746265765
        CHANNELS 3 Zrotation Xrotation Yrotation
        JOINT Spine1
        {
            OFFSET 0.0 0.0 11.872508829551373
            CHANNELS 3 Zrotation Xrotation Yrotation
            JOINT Spine2
            {
                OFFSET 0.0 0.0 11.872508829551373
                CHANNELS 3 Zrotation Xrotation Yrotation
                JOINT Spine3
                {
                    OFFSET 0.0 0.0 11.87250882955137
                    CHANNELS 3 Zrotation Xrotation Yrotation
                    JOINT Spine4
                    {
                        OFFSET 0.0 0.0 11.872508829551379
                        CHANNELS 3 Zrotation Xrotation Yrotation
                        JOINT RightShoulder
                        {
                            OFFSET -24.358366125070553 0.0 0.0
                            CHANNELS 3 Zrotation Xrotation Yrotation
                            JOINT RightArm
                            {
                                OFFSET -34.674445297469155 0.0 0.0
                                CHANNELS 3 Zrotation Xrotation Yrotation
                                JOINT RightForeArm
                                {
                                    OFFSET -33.82106791342453 0.0 0.0
                                    CHANNELS 3 Zrotation Xrotation Yrotation
                                    JOINT RightHand
                                    {
                                        OFFSET -11.495984255705839 0.0 0.0
                                        CHANNELS 3 Zrotation Xrotation Yrotation
                                        End Site
                                        {
                                            OFFSET 0 0 0
                                        }
                                    }
                                }
                            }
                        }
                        JOINT LeftShoulder
                        {
                            OFFSET 24.358366125070553 0.0 0.0
                            CHANNELS 3 Zrotation Xrotation Yrotation
                            JOINT LeftArm
                            {
                                OFFSET 34.674445297469155 0.0 0.0
                                CHANNELS 3 Zrotation Xrotation Yrotation
                                JOINT LeftForeArm
                                {
                                    OFFSET 33.82106791342453 0.0 0.0
                                    CHANNELS 3 Zrotation Xrotation Yrotation
                                    JOINT LeftHand
                                    {
                                        OFFSET 11.495984255705839 0.0 0.0
                                        CHANNELS 3 Zrotation Xrotation Yrotation
                                        End Site
                                        {
                                            OFFSET 0 0 0
                                        }
                                    }
                                }
                            }
                        }
                        JOINT Neck
                        {
                            OFFSET 0.0 0.0 11.872508810545177
                            CHANNELS 3 Zrotation Xrotation Yrotation
                            JOINT Head
                            {
                                OFFSET 0.0 0.0 25.750678296215384
                                CHANNELS 3 Zrotation Xrotation Yrotation
                                End Site
                                {
                                    OFFSET 0 0 0
                                }
                            }
                        }
                    }
                }
            }
        }
    }
}
MOTION
Frames: 4
Frame Time: 0.03333333333333333
55.659218645095834 -2.3653834730386736 440.3014142990113 50.31556738040067 -76.13021391733098 50.35815397379603 1.8253497272173973 -8.494885229645565 -11.020624070715533 17.914382896684813 -11.262916366294409 22.27442329410117 -112.00938690420602 3.1805546814635168e-15 81.02163652590501 0.0 0.0 0.0 3.8887396023677314 -3.0261180008592095 14.199156039411838 -21.71301578896178 -12.91533852563243 -29.31547648327198 101.72654999760367 -6.3611093629270335e-15 -78.09534601438534 0.0 0.0 0.0 0.2058405360446008 -10.275409929223638 0.4993659544581788 -7.951386703658792e-16 0.0 0.0 -7.951386703658792e-16 0.0 0.0 -7.951386703658792e-16 0.0 0.0 -7.951386703658792e-16 0.0 0.0 130.17185617777884 11.046896697529785 -159.64174701187272 109.77252542304767 1.3780928642473821e-14 1.3578488309708337e-14 -1.441193630274322e-14 -25.765510929004414 -1.3084254584526139e-14 0.0 0.0 0.0 -148.78037074874024 15.969718844260562 161.40460890739953 -114.13170824043813 -1.2255602535713618e-14 -7.21933294163663e-15 180.0 30.797841009073874 -180.0 0.0 0.0 0.0 -5.0091351015596395 -5.312410278676916e-15 -2.323691496401741e-16 0.0 0.0 0.0
55.659218645095834 -2.3653834730386736 440.3014142990113 50.31556738040067 -76.13021391733098 50.35815397379603 1.8253497272173973 -8.494885229645565 -11.020624070715533 17.914382896684813 -11.262916366294409 22.27442329410117 -112.00938690420602 3.1805546814635168e-15 81.02163652590501 0.0 0.0 0.0 3.8887396023677314 -3.0261180008592095 14.199156039411838 -21.71301578896178 -12.91533852563243 -29.31547648327198 101.72654999760367 -6.3611093629270335e-15 -78.09534601438534 0.0 0.0 0.0 0.2058405360446008 -10.275409929223638 0.4993659544581788 -7.951386703658792e-16 0.0 0.0 -7.951386703658792e-16 0.0 0.0 -7.951386703658792e-16 0.0 0.0 -7.951386703658792e-16 0.0 0.0 130.17185617777884 11.046896697529785 -159.64174701187272 109.77252542304767 1.3780928642473821e-14 1.3578488309708337e-14 -1.441193630274322e-14 -25.765510929004414 -1.3084254584526139e-14 0.0 0.0 0.0 -148.78037074874024 15.969718844260562 161.40460890739953 -114.13170824043813 -1.2255602535713618e-14 -7.21933294163663e-15 180.0 30.797841009073874 -180.0 0.0 0.0 0.0 -5.0091351015596395 -5.312410278676916e-15 -2.323691496401741e-16 0.0 0.0 0.0
55.659218645095834 -2.3653834730386736 440.3014142990113 50.31556738040067 -76.13021391733098 50.35815397379603 1.8253497272173973 -8.494885229645565 -11.020624070715533 17.914382896684813 -11.262916366294409 22.27442329410117 -112.00938690420602 3.1805546814635168e-15 81.02163652590501 0.0 0.0 0.0 3.8887396023677314 -3.0261180008592095 14.199156039411838 -21.71301578896178 -12.91533852563243 -29.31547648327198 101.72654999760367 -6.3611093629270335e-15 -78.09534601438534 0.0 0.0 0.0 0.2058405360446008 -10.275409929223638 0.4993659544581788 -7.951386703658792e-16 0.0 0.0 -7.951386703658792e-16 0.0 0.0 -7.951386703658792e-16 0.0 0.0 -7.951386703658792e-16 0.0 0.0 130.17185617777884 11.046896697529785 -159.64174701187272 109.77252542304767 1.3780928642473821e-14 1.3578488309708337e-14 -1.441193630274322e-14 -25.765510929004414 -1.3084254584526139e-14 0.0 0.0 0.0 -148.78037074874024 15.969718844260562 161.40460890739953 -114.13170824043813 -1.2255602535713618e-14 -7.21933294163663e-15 180.0 30.797841009073874 -180.0 0.0 0.0 0.0 -5.0091351015596395 -5.312410278676916e-15 -2.323691496401741e-16 0.0 0.0 0.0
55.634922122955324 -2.3784337297081946 440.30906867980957 49.46926832602621 -75.88694116939769 49.49055964505454 1.8953220406097928 -8.84067642480044 -10.97560221130556 18.417238173792956 -11.58543934426807 22.77776435125783 -112.29690154077473 -3.1805546814635168e-15 81.69752262241082 0.0 0.0 0.0 3.8287746152977244 -3.359711051183208 14.17017518277331 -21.728706217272336 -12.945511477897508 -29.209170754757892 101.86500343730467 3.1805546814635168e-15 -78.18130820692647 0.0 0.0 0.0 0.19803174626311376 -10.562271945584861 0.4925233888572326 -7.951386703658792e-16 0.0 0.0 -7.951386703658792e-16 0.0 0.0 -7.951386703658792e-16 0.0 0.0 -7.951386703658792e-16 0.0 0.0 130.1827177438397 11.31270370489333 -159.63797099462104 109.93549500226807 1.825757518687474e-15 -2.6043305406064823e-15 -2.4854639385361207e-15 -25.273332124666222 -3.816747190345291e-15 0.0 0.0 0.0 -149.1687671077988 16.46591009237178 161.54701180372365 -114.31152827031974 0.0 -0.0 -180.0 32.803220119652 180.0 -1.5902773407317584e-15 0.0 0.0 -4.92290353818389 6.271440923260629e-15 1.0654627080166511e-15 0.0 0.0 0.0
